<?xml version="1.0" encoding="iso-8859-1"?>
<!-- Generator: Adobe Illustrator 18.1.1, SVG Export Plug-In . SVG Version: 6.00 Build 0)  -->
<svg version="1.1" id="Capa_1" xmlns="http://www.w3.org/2000/svg" xmlns:xlink="http://www.w3.org/1999/xlink" x="0px" y="0px"
	 viewBox="0 0 19.674 19.674" style="enable-background:new 0 0 19.674 19.674;" xml:space="preserve">
<g>
	<path d="M14.905,18.839c-0.336-0.428-1.204-1.604-2.035-3.258h0.016l-0.282-0.547c-0.475-1.026-0.916-1.935-1.206-3.212
		l-0.088-0.413c-0.021-0.11-0.044-0.218-0.06-0.328c-0.256-1.451-0.437-2.442-0.564-3.747l-0.02-0.168
		c-0.162-1.713-0.236-2.731-0.27-3.651l-0.007-0.17c-0.008-0.392-0.014-0.665-0.016-0.786c0.051-0.044,0.1-0.098,0.132-0.158
		c0.046-0.083,0.221-0.183,0.221-0.183V1.929h-0.405V1.401c0-0.185-0.175-0.338-0.402-0.369V0H9.755v1.032
		c-0.229,0.03-0.403,0.184-0.403,0.369v0.528H8.945v0.289c0,0,0.179,0.1,0.223,0.183c0.033,0.06,0.083,0.113,0.133,0.158
		C9.296,2.68,9.294,2.953,9.282,3.345l-0.008,0.17c-0.032,0.92-0.105,1.938-0.27,3.651L8.988,7.334
		C8.86,8.639,8.68,9.628,8.425,11.08c-0.018,0.109-0.041,0.218-0.061,0.328l-0.09,0.412c-0.292,1.279-0.731,2.187-1.207,3.213
		L6.789,15.58h0.013c-0.829,1.654-1.699,2.83-2.036,3.258H3.873v0.836h11.928v-0.836L14.905,18.839L14.905,18.839z M9.268,11.163
		c0.196-1.477,0.325-2.498,0.401-3.829h0.333c0.08,1.331,0.204,2.352,0.403,3.829c0.01,0.081,0.023,0.163,0.036,0.245h-1.21
		C9.244,11.326,9.256,11.244,9.268,11.163z M9.06,12.415h1.553c0.215,1.071,0.495,1.771,0.797,2.619H8.263
		C8.565,14.186,8.847,13.486,9.06,12.415z M6.393,18.839c0.179-0.26,0.501-0.769,0.872-1.495c0.557-0.765,1.516-1.277,2.572-1.277
		s2.065,0.632,2.572,1.277c0.368,0.727,0.692,1.234,0.871,1.495H6.393z"/>
</g>
<g>
</g>
<g>
</g>
<g>
</g>
<g>
</g>
<g>
</g>
<g>
</g>
<g>
</g>
<g>
</g>
<g>
</g>
<g>
</g>
<g>
</g>
<g>
</g>
<g>
</g>
<g>
</g>
<g>
</g>
</svg>
