<?xml version="1.0" encoding="utf-8"?>
<!-- Generator: Adobe Illustrator 16.0.4, SVG Export Plug-In . SVG Version: 6.00 Build 0)  -->
<!DOCTYPE svg PUBLIC "-//W3C//DTD SVG 1.1//EN" "http://www.w3.org/Graphics/SVG/1.1/DTD/svg11.dtd">
<svg version="1.1" id="Capa_1" xmlns="http://www.w3.org/2000/svg" xmlns:xlink="http://www.w3.org/1999/xlink" x="0px" y="0px"
	 width="16.105px" height="19.503px" viewBox="0 0 16.105 19.503" enable-background="new 0 0 16.105 19.503" xml:space="preserve">
<path d="M15.202,12.885v-0.778h0.15v-1.06h0.268c-0.166-0.239-0.469-0.691-0.623-1.041c-0.22-0.498-0.458-1.15-0.458-1.15V8.194
	c0.131,0.009,0.324,0.027,0.546,0.065c0.384,0.067,0.676-0.299,0.676-0.299s-0.477,0.15-0.741-0.1
	c-0.157-0.146-0.346-0.177-0.479-0.181V7.656h-0.146v0.027c-0.006,0-0.021,0.003-0.021,0.003l0.009,0.499l0.013,0.001v0.687h-0.006
	c0,0-0.227,0.637-0.451,1.134c-0.15,0.349-0.453,0.801-0.621,1.041h0.267v1.06h0.15v0.778l-1.65,0.023V9.381h0.188l0.199-0.359
	V8.049h-0.63V6.242h0.088l0.153-0.268V5.243H11.72V3.821h0.574c-0.137-0.199-1.213-2.026-1.271-2.299
	c0.071-0.035,0.12-0.099,0.12-0.175c0-0.095-0.07-0.172-0.17-0.195v-0.42c0.142,0.007,0.477,0.029,0.857,0.094
	c0.5,0.088,0.882-0.392,0.882-0.392s-0.621,0.196-0.97-0.131c-0.265-0.247-0.614-0.251-0.771-0.239V0.001h-0.157v1.151
	c-0.1,0.023-0.17,0.1-0.17,0.195c0,0.076,0.048,0.14,0.115,0.175c-0.053,0.273-1.125,2.1-1.264,2.299h0.57v1.421H9.713v0.731
	L9.86,6.242H9.95v1.807H9.319v0.973l0.2,0.359h0.194v1.002L8.77,8.988v-1.07H8.24v0.393C8.136,8.095,8.022,7.843,7.951,7.625
	C7.794,7.149,7.655,6.537,7.655,6.537H7.619V6.299C7.739,6.306,7.951,6.324,8.2,6.367c0.368,0.065,0.65-0.29,0.65-0.29
	S8.391,6.222,8.133,5.98C7.877,5.739,7.506,5.811,7.506,5.811l0.002,0.117v0.609H7.487c0,0-0.135,0.612-0.292,1.088
	C7.086,7.96,6.866,8.397,6.749,8.629h0.222v3.135H6.333c-0.124-0.252-0.285-0.6-0.378-0.881c-0.167-0.51-0.312-1.166-0.312-1.166
	H5.628V8.682H5.475v1.036H5.46c0,0-0.146,0.654-0.314,1.166c-0.117,0.357-0.347,0.828-0.477,1.072h0.239v2.555h-1.01v-1.234h0.23
	v-1.852h0.401c-0.253-0.252-0.709-0.735-0.942-1.104c-0.331-0.528-0.68-1.203-0.68-1.203H2.898v-0.9
	c0.119,0.01,0.271,0.027,0.438,0.056c0.369,0.065,0.651-0.289,0.651-0.289s-0.46,0.144-0.716-0.097
	C3.016,7.646,2.646,7.718,2.646,7.718L2.653,8.2l0.02,0.001v0.916H2.667c0,0-0.347,0.674-0.683,1.203
	c-0.229,0.369-0.688,0.853-0.941,1.104h0.398v1.852h0.232v1.362H0v4.854h6.755v-2.019c0,0,0.069-1.585,1.628-1.585
	c1.556,0,1.614,1.585,1.614,1.585v2.019h3.17v0.01h2.938v-6.617H15.202L15.202,12.885z M11.214,7.525h-0.672V6.549
	c0,0,0.046-0.271,0.33-0.271c0.282,0,0.342,0.271,0.342,0.271V7.525z"/>
</svg>
