<?xml version="1.0" encoding="iso-8859-1"?>
<!-- Generator: Adobe Illustrator 18.1.1, SVG Export Plug-In . SVG Version: 6.00 Build 0)  -->
<svg version="1.1" id="Capa_1" xmlns="http://www.w3.org/2000/svg" xmlns:xlink="http://www.w3.org/1999/xlink" x="0px" y="0px"
	 viewBox="0 0 19.226 19.226" style="enable-background:new 0 0 19.226 19.226;" xml:space="preserve">
<g>
	<path d="M9.696,10.664c-0.346,0-0.626,0.281-0.626,0.626c0,0.346,0.281,0.627,0.626,0.627c0.346,0,0.627-0.281,0.627-0.627
		C10.323,10.945,10.043,10.664,9.696,10.664z M15.68,11.085V6.198h-0.115V1.594h-0.499V0.8h-0.265V0.273L14.54,0l-0.265,0.273V0.8
		h-2.677v0.794H11.1v4.604H7.926V1.594h-0.5V0.8H4.753V0.273L4.487,0L4.224,0.273V0.8H3.96v0.794H3.459v4.604H3.261v4.888H3.174
		v8.14h12.879v-8.14H15.68V11.085z M5.162,18.68H4.34v-1.866h0.822V18.68z M5.162,12.275H4.34v-1.401c0,0,0.055-0.367,0.412-0.367
		c0.355,0,0.41,0.367,0.41,0.367V12.275z M5.371,6.198H4.753V2.887c0,0,0.044-0.377,0.31-0.377c0.263,0,0.308,0.377,0.308,0.377
		V6.198z M6.397,18.68H5.573v-1.866h0.823L6.397,18.68L6.397,18.68z M6.397,12.275H5.573v-1.401c0,0,0.056-0.367,0.412-0.367
		c0.354,0,0.412,0.367,0.412,0.367S6.397,12.275,6.397,12.275z M6.634,6.198H6.017V2.887c0,0,0.043-0.377,0.308-0.377
		c0.265,0,0.309,0.377,0.309,0.377V6.198z M10.585,6.84h0.377v1.704h-0.377V6.84z M9.814,6.84h0.376v1.704H9.814V6.84z M9.042,6.84
		h0.377v1.704H9.042V6.84z M8.272,6.84h0.376v1.704H8.272V6.84z M9.511,18.68H8.688v-1.866h0.823V18.68z M10.745,18.68H9.921v-1.866
		h0.824V18.68z M9.696,12.858c-0.865,0-1.567-0.703-1.567-1.568s0.702-1.566,1.567-1.566c0.866,0,1.566,0.701,1.566,1.566
		C11.262,12.156,10.562,12.858,9.696,12.858z M13.657,2.887c0,0,0.043-0.377,0.309-0.377c0.264,0,0.31,0.377,0.31,0.377v3.311
		h-0.618V2.887H13.657z M12.391,2.887c0,0,0.046-0.377,0.31-0.377c0.265,0,0.308,0.377,0.308,0.377v3.311h-0.618V2.887z
		 M12.96,10.875c0,0,0.055-0.367,0.408-0.367c0.357,0,0.415,0.367,0.415,0.367v1.401H12.96V10.875z M13.861,18.68h-0.824v-1.866
		h0.823L13.861,18.68L13.861,18.68z M14.192,10.875c0,0,0.057-0.367,0.412-0.367c0.354,0,0.41,0.367,0.41,0.367v1.401h-0.822V10.875
		z M15.094,18.68h-0.825v-1.866h0.825V18.68z"/>
</g>
<g>
</g>
<g>
</g>
<g>
</g>
<g>
</g>
<g>
</g>
<g>
</g>
<g>
</g>
<g>
</g>
<g>
</g>
<g>
</g>
<g>
</g>
<g>
</g>
<g>
</g>
<g>
</g>
<g>
</g>
</svg>
